<svg width="25" height="32" viewBox="0 0 25 32" fill="none" xmlns="http://www.w3.org/2000/svg">
<path d="M16.1881 0.979866C16.1881 0.422193 15.7452 -0.0332032 15.2005 0.00190261C13.4781 0.11291 11.7831 0.513722 10.1845 1.19031C8.28115 1.99589 6.55171 3.17664 5.09494 4.66516C3.63816 6.15367 2.48259 7.92079 1.69418 9.86563C0.905784 11.8105 0.5 13.8949 0.5 16C0.5 18.1051 0.905785 20.1895 1.69419 22.1344C2.48259 24.0792 3.63816 25.8463 5.09494 27.3348C6.55171 28.8234 8.28116 30.0041 10.1845 30.8097C11.7831 31.4863 13.4781 31.8871 15.2005 31.9981C15.7452 32.0332 16.1881 31.5778 16.1881 31.0201L16.1881 0.979866Z" fill="url(#paint0_linear_322_4790)"/>
<path d="M24.5882 4.26159C24.5882 3.70392 24.1449 3.24751 23.601 3.29341C20.719 3.5366 18.0004 4.83869 15.9408 6.98569C13.6473 9.37644 12.3589 12.619 12.3589 16C12.3589 19.381 13.6473 22.6236 15.9408 25.0143C18.0004 27.1613 20.719 28.4634 23.601 28.7066C24.1449 28.7525 24.5882 28.2961 24.5882 27.7384V4.26159Z" fill="url(#paint1_linear_322_4790)"/>
<defs>
<linearGradient id="paint0_linear_322_4790" x1="0.30976" y1="35.3987" x2="25.6221" y2="-3.54155" gradientUnits="userSpaceOnUse">
<stop stop-color="#0194FF"/>
<stop offset="1" stop-color="#1FF8D1"/>
</linearGradient>
<linearGradient id="paint1_linear_322_4790" x1="12.2106" y1="31.4096" x2="32.4692" y2="0.825992" gradientUnits="userSpaceOnUse">
<stop stop-color="#0194FF"/>
<stop offset="1" stop-color="#1FF8D1"/>
</linearGradient>
</defs>
</svg>
